<?xml version="1.0" encoding="utf-8"?>
<!-- Generator: Adobe Illustrator 23.0.2, SVG Export Plug-In . SVG Version: 6.00 Build 0)  -->
<svg version="1.1" xmlns="http://www.w3.org/2000/svg" xmlns:xlink="http://www.w3.org/1999/xlink" x="0px" y="0px"
	 viewBox="0 0 127 121.6" style="enable-background:new 0 0 127 121.6;" xml:space="preserve">
<style type="text/css">
	.st0{display:none;}
	.st1{display:inline;fill:#232323;}
	.st2{opacity:0.18;enable-background:new    ;}
	.st3{fill:url(#SVGID_1_);}
	.st4{opacity:0.17;fill:url(#reflection_1_);enable-background:new    ;}
	.st5{opacity:0.75;enable-background:new    ;}
	.st6{fill:url(#SVGID_2_);}
	.st7{fill:url(#SVGID_3_);}
	.st8{fill:none;stroke:#303030;stroke-width:0.7;stroke-linecap:round;stroke-miterlimit:10;}
	.st9{fill:#FFFFFF;}
	.st10{display:inline;fill:none;stroke:#FFFFFF;stroke-width:0.2;stroke-miterlimit:10;}
	.st11{clip-path:url(#SVGID_5_);fill:#2F3030;}
	.st12{fill:url(#SVGID_6_);}
	.st13{fill:none;stroke:#FFFFFF;stroke-width:0.3171;stroke-linecap:round;stroke-miterlimit:10;}
	.st14{fill:none;stroke:#424242;stroke-width:0.3171;stroke-linecap:round;stroke-miterlimit:10;}
	.st15{fill:url(#SVGID_7_);}
	.st16{opacity:0.13;fill:#FFFFFF;}
	.st17{fill:#2F3030;}
	.st18{fill:url(#SVGID_8_);}
	.st19{fill:url(#SVGID_9_);}
	.st20{opacity:0.36;fill:url(#SVGID_10_);}
	.st21{fill:url(#SVGID_11_);}
	.st22{fill:url(#SVGID_12_);}
	.st23{fill:url(#SVGID_13_);}
	.st24{fill:url(#SVGID_14_);}
	.st25{fill:url(#SVGID_15_);}
	.st26{fill:url(#SVGID_16_);}
	.st27{fill:url(#SVGID_17_);}
	.st28{fill:url(#SVGID_18_);}
	.st29{fill:url(#SVGID_19_);}
	.st30{fill:url(#SVGID_20_);}
	.st31{clip-path:url(#SVGID_22_);}
	.st32{fill:url(#SVGID_23_);}
	.st33{fill:none;stroke:#545454;stroke-width:0.1019;stroke-miterlimit:10;}
	.st34{fill:none;stroke:#FFFFFF;stroke-width:0.1019;stroke-miterlimit:10;}
	.st35{fill:none;}
	.st36{font-family:'SFProDisplay-Regular';}
	.st37{font-size:4px;}
	.st38{font-family:'SFProDisplay-Ultralight';}
	.st39{fill:#FFFFFF;stroke:#FFFFFF;stroke-width:0.1019;stroke-miterlimit:10;}
	.st40{clip-path:url(#SVGID_25_);}
	.st41{fill:#2A3693;}
	.st42{fill:url(#SVGID_26_);}
	.st43{fill:url(#SVGID_27_);}
	.st44{fill:#00FAD4;}
	.st45{clip-path:url(#SVGID_29_);}
	.st46{fill:none;stroke:#00BFC4;stroke-width:1.924561e-02;stroke-miterlimit:10;}
	.st47{fill:none;stroke:#E84DAD;stroke-width:1.924561e-02;stroke-miterlimit:10;}
	.st48{fill:none;stroke:#545454;stroke-width:9.511585e-02;stroke-miterlimit:10;}
	.st49{fill:none;stroke:#FFFFFF;stroke-width:0.141;stroke-miterlimit:10;}
	.st50{clip-path:url(#SVGID_31_);}
	.st51{fill:url(#SVGID_32_);}
	.st52{fill:none;stroke:#545454;stroke-width:9.724434e-02;stroke-miterlimit:10;}
	.st53{fill:none;stroke:#FFFFFF;stroke-width:0.1184;stroke-miterlimit:10;}
	.st54{fill:none;stroke:#545454;stroke-width:9.724434e-02;stroke-miterlimit:10;stroke-dasharray:0.9761,0.4881;}
</style>
<g id="Layer_9" class="st0">
	<rect x="-18" y="-8.2" class="st1" width="180.7" height="149"/>
</g>
<g id="Phone">
	<g>
		<path id="shadow" class="st2" d="M21.6,107.4c0,0,36-20.8,36.5-21.1s3-1.2,5.4,0.1c2.4,1.3,15.9,9.2,15.9,9.2s3.1,1.7,0.5,3.4
			c-2.6,1.8-34.5,21.6-35,21.9c-0.5,0.3-3.2,1.5-5.8,0.1c-3-1.6-17.6-10.1-17.6-10.1s-1.1-0.6-1.1-1.6
			C20.4,108,21.6,107.4,21.6,107.4z"/>
		
			<linearGradient id="SVGID_1_" gradientUnits="userSpaceOnUse" x1="51.842" y1="98.7084" x2="55.5396" y2="83.9178" gradientTransform="matrix(1 0 0 -1 0 205.0559)">
			<stop  offset="1.281415e-03" style="stop-color:#030303"/>
			<stop  offset="1" style="stop-color:#000000"/>
		</linearGradient>
		<path class="st3" d="M81,94.4c0-1-1.4-1.7-1.5-1.8c-2.3-1.3-13.7-7.9-16-9.2c-0.8-0.4-1.7-0.7-2.7-0.7c-0.8,0-1.6,0.2-2.3,0.5
			c-0.6,0.3-37.2,21.4-37.2,21.4S20,105.5,20,107c-0.1,2,1.1,2.4,1.5,2.8c0.5,0.4,15.4,8.8,17.4,9.9c0.7,0.4,1.8,0.9,2.9,0.9
			c1.5,0,2.7-0.6,3.1-0.8c0.2-0.1,32.6-20.1,35.5-22.1c0.8-0.5,0.8-1.2,0.8-1.6C81,96.1,81,94.6,81,94.4z"/>
		
			<linearGradient id="reflection_1_" gradientUnits="userSpaceOnUse" x1="54.7792" y1="104.3636" x2="91.5585" y2="113.1383" gradientTransform="matrix(1 0 0 -1 0 205.0559)">
			<stop  offset="0" style="stop-color:#FFFFFF"/>
			<stop  offset="1" style="stop-color:#000000"/>
		</linearGradient>
		<path id="reflection" class="st4" d="M20.9,105.6C21.3,105.2,58,84.2,58,84.2s2.8-1.1,5.2,0.2c2.4,1.3,15.9,9.1,15.9,9.1
			s3.5,1.5,0.5,3.3c-2.7,1.7-34.5,21.5-35,21.8c-0.5,0.3-3.2,1.5-5.8,0.1c-3-1.6-16.9-9.6-17.6-10.1
			C19.8,107.9,20.4,105.9,20.9,105.6z"/>
		<path class="st5" d="M80.4,94.8c-0.1-1-1.2-1.6-1.3-1.7c-2.2-1.3-13.5-7.8-15.7-9c-0.8-0.4-1.7-0.7-2.7-0.7
			c-0.8,0-1.6,0.2-2.2,0.5c-0.6,0.3-35.1,20.2-36.6,21.1c0,0-0.9,0.5-0.9,1.5c0,0.8,0.5,1.3,0.9,1.7c0.5,0.4,15.1,8.7,17.1,9.8
			c0.7,0.4,1.8,0.8,2.8,0.8c1.5,0,2.7-0.5,3-0.7c0.2-0.1,32.1-19.8,34.9-21.7C80.5,95.8,80.4,95.1,80.4,94.8z M79.5,95.8
			c-2.8,1.9-34.7,21.6-34.9,21.7c-0.3,0.2-1.4,0.7-2.8,0.7c-0.9,0-1.8-0.4-2.6-0.8c-2.5-1.4-16.7-9.4-17-9.7
			c-0.4-0.3-0.7-0.7-0.7-1.3c0-0.7,0.6-1,0.6-1c0,0,36-20.7,36.6-21.1c0.6-0.3,1.3-0.4,2-0.4c0.9,0,1.7,0.2,2.4,0.6
			c2.1,1.2,12.6,7.2,15.7,9c0,0,0.9,0.5,1,1.3C79.9,95.1,80,95.5,79.5,95.8z"/>
		
			<linearGradient id="SVGID_2_" gradientUnits="userSpaceOnUse" x1="57.836" y1="100.6923" x2="47.9291" y2="105.7156" gradientTransform="matrix(1 0 0 -1 0 205.0559)">
			<stop  offset="1.281415e-03" style="stop-color:#212121"/>
			<stop  offset="0.9597" style="stop-color:#010101"/>
			<stop  offset="1" style="stop-color:#000000"/>
		</linearGradient>
		<polygon class="st6" points="60.1,83.4 58,84.2 35.1,97.5 21.9,104.9 20.9,106 21,107.4 22.6,108.7 33,114.6 40,118.4 41.8,118.7 
			44.8,118 48.9,115.4 79.1,96.6 80.4,95.6 80.5,94.5 79.8,93.5 67.1,86.1 62.2,83.5 		"/>
		<g>
			
				<linearGradient id="SVGID_3_" gradientUnits="userSpaceOnUse" x1="55.5937" y1="106.0687" x2="98.7563" y2="127.6501" gradientTransform="matrix(1 0 0 -1 0 205.0559)">
				<stop  offset="1.281415e-03" style="stop-color:#030303"/>
				<stop  offset="1" style="stop-color:#000000"/>
			</linearGradient>
			<path class="st7" d="M80.8,94.7c-0.1-1-1.2-1.6-1.3-1.7c-2.3-1.3-13.7-7.9-16-9.2c-0.8-0.4-1.7-0.7-2.7-0.7
				c-0.8,0-1.6,0.2-2.3,0.5C58,83.9,22.9,104.1,21.5,105c0,0-0.9,0.5-0.9,1.5c0,0.8,0.5,1.4,0.9,1.7c0.5,0.4,15.4,8.8,17.4,9.9
				c0.7,0.4,1.8,0.9,2.9,0.9c1.5,0,2.7-0.5,3.1-0.8c0.2-0.1,32.6-20.1,35.5-22.1C80.9,95.7,80.9,95,80.8,94.7z M79.9,95.8
				c-2.9,1.9-35.2,21.9-35.4,22.1c-0.3,0.2-1.4,0.7-2.8,0.7c-0.9,0-1.9-0.4-2.6-0.8c-2.6-1.4-16.9-9.5-17.3-9.8
				c-0.4-0.3-0.7-0.7-0.7-1.3c0-0.7,0.6-1.1,0.7-1.1c0,0,36.5-21.1,37.1-21.4c0.6-0.3,1.3-0.4,2-0.4c0.9,0,1.7,0.2,2.5,0.6
				c0.3,0.2,15.3,8.8,16,9.2c0,0,0.9,0.5,1,1.3C80.4,95,80.4,95.4,79.9,95.8z"/>
		</g>
		<line class="st8" x1="28.6" y1="108.8" x2="36.7" y2="113.5"/>
		<g>
			<g>
				<path class="st9" d="M76.5,93.9l-0.3-0.2l0.5-0.3l0.1,0l-0.5,0.3L76.5,93.9L76.5,93.9z"/>
				<path class="st9" d="M76.6,93.9l0.5-0.3L77,93.6l0.1,0l0.4,0.2l-0.1,0l-0.1-0.1L76.6,93.9L76.6,93.9z"/>
				<path class="st9" d="M77.2,94.3l-0.3-0.2l0.5-0.3l0.3,0.2l-0.1,0l-0.2-0.1L77.3,94l0.2,0.1l-0.1,0L77.2,94l-0.2,0.1L77.2,94.3
					L77.2,94.3z"/>
			</g>
			<g>
				<path class="st9" d="M77.5,94.5c0-0.1,0.1-0.1,0.1-0.2l0.2-0.1c0.1-0.1,0.2-0.1,0.3-0.1c0.1,0,0.2,0,0.2,0.1l0.7,0.4
					c0.1,0,0.1,0.1,0.1,0.1c0,0.1-0.1,0.1-0.1,0.2l-0.2,0.1c-0.1,0.1-0.2,0.1-0.3,0.1c-0.1,0-0.2,0-0.2-0.1l-0.7-0.4
					C77.6,94.6,77.5,94.6,77.5,94.5z M78.5,95c0,0,0.1,0,0.1,0c0,0,0.1,0,0.1-0.1l0.3-0.2c0,0,0.1-0.1,0.1-0.1c0,0,0-0.1-0.1-0.1
					l-0.7-0.4c0,0-0.1,0-0.1,0c0,0-0.1,0-0.1,0.1l-0.3,0.2c0,0-0.1,0.1-0.1,0.1s0,0.1,0.1,0.1L78.5,95z M77.8,94.5
					C77.8,94.5,77.8,94.5,77.8,94.5l0.3-0.2c0,0,0,0,0.1,0c0,0,0,0,0.1,0l0.8,0.4c0,0,0,0,0,0c0,0,0,0,0,0L78.7,95c0,0,0,0-0.1,0
					c0,0,0,0-0.1,0L77.8,94.5C77.8,94.5,77.8,94.5,77.8,94.5z M79.2,95c0,0,0,0.1,0,0.1c-0.1,0-0.2,0-0.2,0L79.2,95z"/>
			</g>
			<path class="st9" d="M75.8,93.5L75.8,93.5c0,0,0-0.1,0-0.1l0.5-0.3c0.1,0,0.1,0,0.2,0l0,0c0,0,0,0.1,0,0.1L76,93.5
				C75.9,93.6,75.9,93.6,75.8,93.5z"/>
			<path class="st9" d="M75.5,93.4L75.5,93.4c0,0,0-0.1,0-0.1l0.4-0.2c0.1,0,0.1,0,0.2,0l0,0c0,0,0,0.1,0,0.1l-0.4,0.2
				C75.7,93.4,75.6,93.4,75.5,93.4z"/>
			<path class="st9" d="M75.3,93.2L75.3,93.2c0,0,0-0.1,0-0.1l0.2-0.1c0.1,0,0.1,0,0.2,0l0,0c0,0,0,0.1,0,0.1l-0.2,0.1
				C75.4,93.2,75.3,93.2,75.3,93.2z"/>
			<path class="st9" d="M75,93.1L75,93.1c0,0,0-0.1,0-0.1l0.1,0c0.1,0,0.1,0,0.2,0l0,0c0,0,0,0.1,0,0.1l-0.1,0
				C75.1,93.1,75,93.1,75,93.1z"/>
			<path d="M74.1,91.9l-9.8-5.8c-0.3-0.2-0.2-0.4,0.1-0.6l0.8-0.5L76,91.4l-0.8,0.5C74.8,92,74.4,92.1,74.1,91.9z"/>
		</g>
	</g>
</g>
<g id="Frame" class="st0">
	<line class="st10" x1="41.4" y1="116.3" x2="41.4" y2="4.8"/>
	<line class="st10" x1="80.2" y1="93" x2="80.2" y2="-0.1"/>
	<line class="st10" x1="60.8" y1="81.5" x2="60.8" y2="-1.5"/>
	<line class="st10" x1="20.8" y1="104.6" x2="20.8" y2="11.1"/>
</g>
<g id="Content">
	<g>
		<g>
			<defs>
				<path id="SVGID_4_" d="M81.9,42.1C78.8,43.9,44,62.5,43.8,62.6c-0.3,0.2-1.5,0.6-3,0.6c-0.9,0-2-0.4-2.7-0.9
					c-2.7-1.4-17.7-9.8-18.1-10.2c-0.4-0.3-0.8-0.7-0.7-1.3c0-0.7,0.7-1,0.7-1c0,0,39.2-19.5,39.8-19.8c0.7-0.3,1.4-0.4,2.2-0.4
					c1,0,1.8,0.2,2.6,0.7c0.3,0.2,16,9.1,16.7,9.5c0,0,1,0.5,1.1,1.3C82.4,41.4,82.4,41.8,81.9,42.1z"/>
			</defs>
			<clipPath id="SVGID_5_">
				<use xlink:href="#SVGID_4_"  style="overflow:visible;"/>
			</clipPath>
			<polygon class="st11" points="38.6,67 16.7,50.5 52.9,32 76.7,47.2 			"/>
		</g>
		<g>
			<linearGradient id="SVGID_6_" gradientUnits="userSpaceOnUse" x1="40.3909" y1="35.5185" x2="60.5275" y2="46.9025">
				<stop  offset="0" style="stop-color:#2A3693"/>
				<stop  offset="1" style="stop-color:#209285"/>
			</linearGradient>
			<path class="st12" d="M53.8,33.8l10.3,6.4l-17,8.4l-10.3-6.4L53.8,33.8 M53.8,33.7l-17.2,8.5l10.5,6.5l17.2-8.5L53.8,33.7
				L53.8,33.7z"/>
		</g>
		<line class="st13" x1="65.1" y1="40.9" x2="72" y2="45.2"/>
		<line class="st14" x1="52.7" y1="56.4" x2="65" y2="50"/>
		<line class="st13" x1="64.1" y1="41.4" x2="69.3" y2="44.6"/>
		<line class="st13" x1="63.1" y1="42" x2="70" y2="46.2"/>
		<line class="st13" x1="46.8" y1="50" x2="53.7" y2="54.3"/>
		<line class="st13" x1="45.8" y1="50.5" x2="49.2" y2="52.6"/>
		<line class="st13" x1="44.8" y1="51" x2="51.7" y2="55.3"/>
		<line class="st13" x1="62.1" y1="42.5" x2="66.6" y2="45.2"/>
		<line class="st13" x1="61" y1="43" x2="65.6" y2="45.8"/>
		<line class="st13" x1="60" y1="43.5" x2="62.6" y2="45.1"/>
		<line class="st13" x1="59" y1="44" x2="65.9" y2="48.2"/>
		<line class="st13" x1="57.9" y1="44.5" x2="62.4" y2="47.3"/>
		<line class="st13" x1="56.9" y1="45" x2="63.8" y2="49.3"/>
		<line class="st13" x1="55.9" y1="45.5" x2="61.7" y2="49.1"/>
		<line class="st13" x1="54.9" y1="46" x2="61.7" y2="50.3"/>
		<line class="st13" x1="53.8" y1="46.5" x2="55.5" y2="47.6"/>
		<line class="st13" x1="58.4" y1="34.1" x2="65.3" y2="38.4"/>
		
			<linearGradient id="SVGID_7_" gradientUnits="userSpaceOnUse" x1="26.3109" y1="31.6248" x2="25.6028" y2="38.5964" gradientTransform="matrix(0.9829 0.5557 -1.0005 0.4518 75.2606 8.4829)">
			<stop  offset="0" style="stop-color:#2A3693"/>
			<stop  offset="1" style="stop-color:#209285"/>
		</linearGradient>
		<polygon class="st15" points="74.7,45.9 53.8,33.1 57.2,31.4 78.1,44.3 		"/>
		<path class="st16" d="M73.6,44.7L55.9,33.8c-0.6-0.4-0.6-0.9,0-1.3l0,0c0.6-0.3,1.7-0.3,2.3,0.1l17.7,10.9c0.6,0.4,0.6,0.9,0,1.3
			l0,0C75.2,45.1,74.2,45.1,73.6,44.7z"/>
		<g>
			<path class="st9" d="M56.9,33.3L56.9,33.3L56.9,33.3c0.1,0,0.1-0.1,0.2-0.1c0.2-0.1,0.2-0.2,0-0.3c-0.2-0.1-0.4-0.1-0.6,0
				c-0.2,0.1-0.2,0.2,0,0.3C56.6,33.2,56.7,33.3,56.9,33.3L56.9,33.3l-0.1,0l0,0.2l0.1,0L56.9,33.3z M56.7,33.2
				c-0.1-0.1-0.1-0.2,0-0.2c0.1-0.1,0.3,0,0.4,0c0.1,0.1,0.1,0.2,0,0.2C56.9,33.2,56.8,33.2,56.7,33.2z"/>
		</g>
		<line class="st13" x1="58.7" y1="34.3" x2="65.6" y2="38.5"/>
		<path class="st17" d="M51.3,39.2"/>
		
			<linearGradient id="SVGID_8_" gradientUnits="userSpaceOnUse" x1="17.7104" y1="45.9737" x2="22.5933" y2="45.9737" gradientTransform="matrix(0.9829 0.5557 -1.0005 0.4518 75.2606 8.4829)">
			<stop  offset="0" style="stop-color:#2A3693"/>
			<stop  offset="1" style="stop-color:#209285"/>
		</linearGradient>
		<polygon class="st18" points="45.2,39.7 53.3,39.8 48.5,43.2 		"/>
		
			<linearGradient id="SVGID_9_" gradientUnits="userSpaceOnUse" x1="21.4199" y1="45.9701" x2="25.4424" y2="45.9701" gradientTransform="matrix(0.9829 0.5557 -1.0005 0.4518 75.2606 8.4829)">
			<stop  offset="0" style="stop-color:#2A3693"/>
			<stop  offset="1" style="stop-color:#209285"/>
		</linearGradient>
		<path class="st19" d="M53.3,39.8l0,4l-4.8-0.7L53.3,39.8z"/>
		
			<linearGradient id="SVGID_10_" gradientUnits="userSpaceOnUse" x1="17.7104" y1="47.1671" x2="25.4424" y2="47.1671" gradientTransform="matrix(0.9829 0.5557 -1.0005 0.4518 75.2606 8.4829)">
			<stop  offset="0" style="stop-color:#2A3693"/>
			<stop  offset="1" style="stop-color:#209285"/>
		</linearGradient>
		<polygon class="st20" points="53.3,43.8 50.1,40.4 45.2,39.7 48.5,43.1 		"/>
		<g>
			
				<linearGradient id="SVGID_11_" gradientUnits="userSpaceOnUse" x1="13.0614" y1="65.6739" x2="42.6092" y2="61.2119" gradientTransform="matrix(0.9829 0.5557 -1.0005 0.4518 75.2606 8.4829)">
				<stop  offset="0" style="stop-color:#852574"/>
				<stop  offset="1" style="stop-color:#1F9386"/>
			</linearGradient>
			<polyline class="st21" points="30.5,48.8 31,47.3 27,49.2 30.5,48.8 			"/>
			
				<linearGradient id="SVGID_12_" gradientUnits="userSpaceOnUse" x1="-8.1632" y1="51.8181" x2="30.7522" y2="67.134" gradientTransform="matrix(0.9829 0.5557 -1.0005 0.4518 75.2606 8.4829)">
				<stop  offset="0" style="stop-color:#852574"/>
				<stop  offset="1" style="stop-color:#1F9386"/>
			</linearGradient>
			<polyline class="st22" points="34.4,51.2 37.3,51.1 33.3,53.1 34.4,51.2 			"/>
			<g>
				
					<linearGradient id="SVGID_13_" gradientUnits="userSpaceOnUse" x1="11.5195" y1="71.2511" x2="37.045" y2="58.3212" gradientTransform="matrix(0.9829 0.5557 -1.0005 0.4518 75.2606 8.4829)">
					<stop  offset="0" style="stop-color:#852574"/>
					<stop  offset="1" style="stop-color:#1F9386"/>
				</linearGradient>
				<polygon class="st23" points="27,49.2 30.5,48.8 29.1,51.7 				"/>
			</g>
			<g>
				
					<linearGradient id="SVGID_14_" gradientUnits="userSpaceOnUse" x1="6.8875" y1="50.8781" x2="29.1764" y2="71.9288" gradientTransform="matrix(0.9829 0.5557 -1.0005 0.4518 75.2606 8.4829)">
					<stop  offset="0" style="stop-color:#852574"/>
					<stop  offset="1" style="stop-color:#1F9386"/>
				</linearGradient>
				<polygon class="st24" points="33.3,53.1 34.4,51.2 29.1,51.7 				"/>
			</g>
			<g>
				
					<linearGradient id="SVGID_15_" gradientUnits="userSpaceOnUse" x1="20.6047" y1="68.2844" x2="20.7581" y2="67.1045" gradientTransform="matrix(0.9829 0.5557 -1.0005 0.4518 75.2606 8.4829)">
					<stop  offset="0" style="stop-color:#852574"/>
					<stop  offset="1" style="stop-color:#1F9386"/>
				</linearGradient>
				<polygon class="st25" points="27,49.2 28.7,51.9 29.1,51.7 				"/>
			</g>
			
				<linearGradient id="SVGID_16_" gradientUnits="userSpaceOnUse" x1="12.2181" y1="66.3301" x2="42.7116" y2="70.2491" gradientTransform="matrix(0.9829 0.5557 -1.0005 0.4518 75.2606 8.4829)">
				<stop  offset="0" style="stop-color:#852574"/>
				<stop  offset="1" style="stop-color:#1F9386"/>
			</linearGradient>
			<polyline class="st26" points="29.1,51.7 33.3,53.1 28.7,51.9 29.1,51.7 			"/>
			<g>
				
					<linearGradient id="SVGID_17_" gradientUnits="userSpaceOnUse" x1="20.1492" y1="63.057" x2="24.302" y2="63.057" gradientTransform="matrix(0.9829 0.5557 -1.0005 0.4518 75.2606 8.4829)">
					<stop  offset="0" style="stop-color:#852574"/>
					<stop  offset="1" style="stop-color:#1F9386"/>
				</linearGradient>
				<polygon class="st27" points="30.5,48.8 35.6,48.5 34.4,51.2 				"/>
			</g>
			<g>
				
					<linearGradient id="SVGID_18_" gradientUnits="userSpaceOnUse" x1="20.1492" y1="-594.2614" x2="24.302" y2="-594.2614" gradientTransform="matrix(0.9829 0.5557 1.0005 -0.4518 603.4465 -230.0317)">
					<stop  offset="0" style="stop-color:#852574"/>
					<stop  offset="1" style="stop-color:#1F9386"/>
				</linearGradient>
				<polygon class="st28" points="30.5,48.8 29.1,51.7 34.4,51.2 				"/>
			</g>
			<g>
				
					<linearGradient id="SVGID_19_" gradientUnits="userSpaceOnUse" x1="16.0967" y1="66.4279" x2="26.4182" y2="57.8686" gradientTransform="matrix(0.9829 0.5557 -1.0005 0.4518 75.2606 8.4829)">
					<stop  offset="0" style="stop-color:#852574"/>
					<stop  offset="1" style="stop-color:#1F9386"/>
				</linearGradient>
				<polygon class="st29" points="35.6,48.5 31,47.3 30.5,48.8 				"/>
			</g>
			<g>
				
					<linearGradient id="SVGID_20_" gradientUnits="userSpaceOnUse" x1="9.7288" y1="56.0584" x2="11.6552" y2="57.0508" gradientTransform="matrix(0.9829 0.5557 -1.0005 0.4518 75.2606 8.4829)">
					<stop  offset="0" style="stop-color:#852574"/>
					<stop  offset="1" style="stop-color:#1F9386"/>
				</linearGradient>
				<polygon class="st30" points="35.6,48.5 37.3,51.1 34.4,51.2 				"/>
			</g>
		</g>
		<g>
			<defs>
				<polygon id="SVGID_21_" points="40.3,65.5 16,52.3 53.8,33.1 75.8,46.6 				"/>
			</defs>
			<clipPath id="SVGID_22_">
				<use xlink:href="#SVGID_21_"  style="overflow:visible;"/>
			</clipPath>
			<g class="st31">
				<linearGradient id="SVGID_23_" gradientUnits="userSpaceOnUse" x1="23.4566" y1="44.2303" x2="42.7412" y2="55.1326">
					<stop  offset="0" style="stop-color:#852574"/>
					<stop  offset="1" style="stop-color:#1F9386"/>
				</linearGradient>
				<path class="st32" d="M35.5,42.9l10.3,6.4l-15,7.4l-10.8-6.2L35.5,42.9 M35.6,42.7l-15.6,7.7l11,6.3l15.2-7.5L35.6,42.7
					L35.6,42.7z"/>
			</g>
		</g>
		<path class="st33" d="M81.9,42.1C78.8,43.9,44,62.5,43.8,62.6c-0.3,0.2-1.5,0.6-3,0.6c-0.9,0-2-0.4-2.7-0.9
			c-2.7-1.4-17.7-9.8-18.1-10.2c-0.4-0.3-0.8-0.7-0.7-1.3c0-0.7,0.7-1,0.7-1c0,0,39.2-19.5,39.8-19.8c0.7-0.3,1.4-0.4,2.2-0.4
			c1,0,1.8,0.2,2.6,0.7c0.3,0.2,16,9.1,16.7,9.5c0,0,1,0.5,1.1,1.3C82.4,41.4,82.4,41.8,81.9,42.1z"/>
	</g>
	
		<ellipse transform="matrix(1.849557e-02 -0.9998 0.9998 1.849557e-02 16.9203 96.1224)" class="st34" cx="57.4" cy="39.4" rx="1.2" ry="2.8"/>
	<polyline class="st34" points="59.3,38.6 73.1,30.2 90,30.2 	"/>
	<rect x="91" y="34" class="st35" width="37" height="15.5"/>
	<text transform="matrix(1 0 0 1 90.9771 36.7785)"><tspan x="0" y="0" class="st9 st36 st37">Annotate</tspan><tspan x="15.3" y="0" class="st9 st38 st37"> to search </tspan><tspan x="0" y="4.8" class="st9 st38 st37">using keywords and </tspan><tspan x="0" y="9.6" class="st9 st38 st37">logical operators</tspan></text>
	<polygon class="st39" points="90,30.2 91.3,31.5 102.3,31.5 102.3,30.2 	"/>
</g>
<g id="Header">
	<g>
		<g>
			<defs>
				<path id="SVGID_24_" d="M79.1,68.4c0,0,0.4-0.2,0.5-0.6c0.1-0.4,0.1-0.8-0.3-1.1s-0.7-0.6-1.3-0.9c-0.6-0.4-2.5-1.4-2.5-1.4
					l-11.9-6.8c0,0-1-0.5-2.2-0.5c-1.3,0-2.1,0.5-3.2,1.1c-1.1,0.6-3.3,1.7-3.3,1.7l17.6,12.3L79.1,68.4z"/>
			</defs>
			<clipPath id="SVGID_25_">
				<use xlink:href="#SVGID_24_"  style="overflow:visible;"/>
			</clipPath>
			<g class="st40">
				<polygon class="st41" points="71.4,67.4 61,61.2 65.7,58.5 76.1,64.6 				"/>
				
					<linearGradient id="SVGID_26_" gradientUnits="userSpaceOnUse" x1="34.9478" y1="72.2029" x2="39.7339" y2="72.2029" gradientTransform="matrix(0.9189 0.5407 -0.9279 0.5423 93.6615 -0.8682)">
					<stop  offset="0" style="stop-color:#852574"/>
					<stop  offset="1" style="stop-color:#2A3693"/>
				</linearGradient>
				<polygon class="st42" points="61,61.2 56.2,58.4 60.9,55.7 65.7,58.5 				"/>
				
					<linearGradient id="SVGID_27_" gradientUnits="userSpaceOnUse" x1="1033.0189" y1="72.2029" x2="1037.8229" y2="72.2029" gradientTransform="matrix(-0.9189 -0.5407 -0.9279 0.5423 1094.5597 588.0319)">
					<stop  offset="0" style="stop-color:#852574"/>
					<stop  offset="1" style="stop-color:#2A3693"/>
				</linearGradient>
				<polygon class="st43" points="71.4,67.4 76.2,70.2 80.9,67.4 76.1,64.6 				"/>
				<g>
					<path class="st44" d="M72.4,66.6L72.4,66.6L72.4,66.6c0.1-0.1,0.2-0.1,0.3-0.2c0.2-0.1,0.3-0.4,0-0.5c-0.2-0.1-0.6-0.1-0.9,0
						s-0.3,0.4,0,0.5c0.1,0.1,0.3,0.1,0.4,0.1l0,0l-0.1,0l0,0.4l0.2,0L72.4,66.6z M72,66.4c-0.2-0.1-0.2-0.3,0-0.4
						c0.2-0.1,0.4-0.1,0.6,0c0.2,0.1,0.2,0.3,0,0.4S72.1,66.5,72,66.4z"/>
				</g>
				<g>
					<path class="st9" d="M75.3,68.6c-0.1,0-0.1-0.1,0-0.2l0.5-0.3l0,0c-0.1,0-0.1,0-0.2,0l-0.9,0.5l0.4,0l0.7,0.4
						c0.1,0,0.1,0,0.2,0l0,0L75.3,68.6z"/>
					<path class="st9" d="M77.2,68.6l-0.9-0.5c-0.1,0-0.2,0-0.2,0l-0.7,0.4c-0.1,0-0.1,0.1,0,0.1l0.7,0.4l0.1,0.2l1-0.6
						C77.3,68.7,77.3,68.6,77.2,68.6L77.2,68.6z"/>
				</g>
				<g>
					<path class="st9" d="M74.1,67.5c0.2,0.1,0.4,0.1,0.6,0c0.2-0.1,0.2-0.3,0-0.4c-0.2-0.1-0.4-0.1-0.6,0
						C74,67.2,74,67.4,74.1,67.5z M74,67.6c-0.2-0.1-0.7-0.3-0.9-0.2l-0.2,0.1l1.2,0.7l0.2-0.1C74.5,68,74.2,67.7,74,67.6z"/>
				</g>
				<g>
					<path class="st9" d="M65.1,62.1c0.1,0.1,0.1,0.2,0,0.2L65,62.2C65.1,62.2,65.1,62.2,65.1,62.1c-0.1,0-0.2,0-0.2,0
						c0,0,0,0,0,0.1l0.1,0.1c0.1,0.1,0.1,0.1,0,0.2c-0.1,0.1-0.2,0-0.4,0c-0.1-0.1-0.1-0.2-0.1-0.2l0.1,0.1c0,0,0,0.1,0,0.1
						c0.1,0,0.1,0,0.2,0c0,0,0,0,0-0.1l-0.1-0.1c-0.1-0.1-0.1-0.1,0-0.2C64.8,62,65,62,65.1,62.1z"/>
					<path class="st9" d="M65.5,62.5c0,0,0-0.1,0-0.1c-0.1,0-0.2,0-0.3,0c-0.1,0.1-0.1,0.1,0,0.2c0.1,0,0.1,0,0.2,0l0.1,0.1
						c-0.1,0.1-0.3,0-0.4,0c-0.1-0.1-0.1-0.2,0-0.3c0.2-0.1,0.4-0.1,0.5,0C65.7,62.4,65.7,62.5,65.5,62.5L65.5,62.5z"/>
					<path class="st9" d="M65.9,62.5L65.9,62.5l0,0.1l0,0c0.1,0,0.2,0,0.2,0c0,0,0,0,0,0L66,62.7c0,0,0,0,0,0c-0.1,0-0.2,0-0.2,0
						l-0.3,0.2l-0.1-0.1L65.9,62.5z"/>
					<path class="st9" d="M66.2,63.2c-0.1,0-0.3,0-0.4,0c-0.1-0.1-0.1-0.2,0-0.3c0.2-0.1,0.4-0.1,0.5,0c0.1,0.1,0.1,0.2,0,0.3
						L66.2,63.2L66,62.9l0,0c-0.1,0.1-0.1,0.1,0,0.2C66,63.1,66.1,63.1,66.2,63.2L66.2,63.2z M66.1,62.9l0.2,0.1
						c0.1,0,0.1-0.1,0-0.1C66.2,62.8,66.1,62.8,66.1,62.9z"/>
					<path class="st9" d="M66.8,63.5c-0.1,0-0.3,0-0.4,0c-0.1-0.1-0.1-0.2,0-0.3c0.2-0.1,0.4-0.1,0.5,0c0.1,0.1,0.1,0.2,0,0.3
						L66.8,63.5l-0.3-0.2l0,0c-0.1,0.1-0.1,0.1,0,0.2C66.5,63.4,66.6,63.4,66.8,63.5L66.8,63.5z M66.6,63.2l0.2,0.1
						c0.1,0,0.1-0.1,0-0.1S66.6,63.1,66.6,63.2z"/>
					<path class="st9" d="M67.2,63.3L67.2,63.3l0,0.1l0,0c0.1,0,0.2,0,0.3,0c0.1,0.1,0.1,0.1,0,0.2l-0.3,0.2L67,63.8l0.3-0.2
						c0.1,0,0.1-0.1,0-0.1c-0.1,0-0.2,0-0.2,0l-0.3,0.2l-0.1-0.1L67.2,63.3z"/>
					<path class="st9" d="M67.9,63.9c0,0,0-0.1,0-0.1c-0.1,0-0.2,0-0.3,0c-0.1,0.1-0.1,0.1,0,0.2c0.1,0,0.1,0,0.2,0l0.1,0.1
						c-0.1,0.1-0.3,0-0.4,0c-0.1-0.1-0.1-0.2,0-0.3c0.2-0.1,0.4-0.1,0.5,0C68.1,63.8,68.1,63.9,67.9,63.9L67.9,63.9z"/>
					<path class="st9" d="M67.9,64.1c0.1-0.1,0.2,0,0.3,0l0.1,0.1l0,0c0.1,0,0.1-0.1,0-0.1c-0.1,0-0.1,0-0.2,0L68.1,64
						c0.1,0,0.2,0,0.4,0c0.1,0.1,0.1,0.2,0,0.2l-0.3,0.2L68,64.4l0.1,0l0,0c-0.1,0-0.2,0-0.2,0C67.8,64.3,67.8,64.2,67.9,64.1z
						 M68.2,64.3L68.2,64.3L68.2,64.3c-0.2-0.1-0.2-0.1-0.3-0.1c0,0,0,0.1,0,0.1C68.1,64.3,68.2,64.3,68.2,64.3z"/>
					<path class="st9" d="M68.9,64.5c0,0,0-0.1,0-0.1c-0.1,0-0.2,0-0.3,0c-0.1,0.1-0.1,0.1,0,0.2c0.1,0,0.1,0,0.2,0l0.1,0.1
						c-0.1,0.1-0.3,0-0.4,0c-0.1-0.1-0.1-0.2,0-0.3c0.2-0.1,0.4-0.1,0.5,0C69.1,64.4,69.1,64.5,68.9,64.5L68.9,64.5z"/>
					<path class="st9" d="M69.4,64.4l0.1,0.1l-0.3,0.2l0,0c0.1,0,0.2,0,0.3,0c0.1,0.1,0.1,0.1,0,0.2l-0.3,0.2L69.1,65l0.3-0.2
						c0.1,0,0.1-0.1,0-0.1c-0.1,0-0.2,0-0.3,0l-0.3,0.2l-0.1-0.1L69.4,64.4z"/>
					<path class="st9" d="M69.9,65.3c-0.1,0-0.3,0-0.4,0c-0.1-0.1-0.1-0.2,0-0.3c0.2-0.1,0.4-0.1,0.5,0c0.1,0.1,0.1,0.2,0,0.3
						L69.9,65.3L69.6,65l0,0c-0.1,0.1-0.1,0.1,0,0.2C69.6,65.2,69.7,65.3,69.9,65.3L69.9,65.3z M69.7,65l0.2,0.1
						c0.1,0,0.1-0.1,0-0.1C69.8,65,69.7,65,69.7,65z"/>
				</g>
				<g>
					<defs>
						<polygon id="SVGID_28_" points="75.2,69.6 56.2,58.4 60.9,55.7 79.9,66.9 						"/>
					</defs>
					<clipPath id="SVGID_29_">
						<use xlink:href="#SVGID_28_"  style="overflow:visible;"/>
					</clipPath>
					<g class="st45">
						<g>
							<g>
								<g id="id1">
									<g>
										<g>
											<g id="id3">
												<path class="st46" d="M57,59.3l1,0.1l0.3,0.6l-0.7,0.4l-1-0.1l-0.3-0.6L57,59.3z M60,59.8l1,0.1l0.3,0.6L60.6,61l-1-0.1
													l-0.3-0.6L60,59.8z M63.1,60.2l1,0.1l0.3,0.6l-0.7,0.4l-1-0.1l-0.3-0.6L63.1,60.2z M65.4,61.1l-1-0.1l-0.3-0.6l0.7-0.4
													l1,0.1l0.3,0.6L65.4,61.1z M62.4,60.7l-1-0.1l-0.3-0.6l0.7-0.4l1,0.1l0.3,0.6L62.4,60.7z M59.3,60.2l-1-0.1L58,59.5
													l0.7-0.4l1,0.1l0.3,0.6L59.3,60.2z M57.4,58.3l1,0.1l0.3,0.6L58,59.5l-1-0.1l-0.3-0.6L57.4,58.3z M60.5,58.8l1,0.1
													l0.3,0.6l-0.7,0.4l-1-0.1l-0.3-0.6L60.5,58.8z M63.5,59.2l1,0.1l0.3,0.6l-0.7,0.4l-1-0.1l-0.3-0.6L63.5,59.2z
													 M65.9,60.1l-1-0.1l-0.3-0.6l0.7-0.4l1,0.1l0.3,0.6L65.9,60.1z M62.8,59.6l-1-0.1l-0.3-0.6l0.7-0.4l1,0.1l0.3,0.6
													L62.8,59.6z M59.8,59.2l-1-0.1l-0.3-0.6l0.7-0.4l1,0.1l0.3,0.6L59.8,59.2z M57.9,57.3l1,0.1l0.3,0.6l-0.7,0.4l-1-0.1
													l-0.3-0.6L57.9,57.3z M60.9,57.7l1,0.1l0.3,0.6l-0.7,0.4l-1-0.1l-0.3-0.6L60.9,57.7z M64,58.2l1,0.1l0.3,0.6l-0.7,0.4
													l-1-0.1l-0.3-0.6L64,58.2z M66.3,59.1l-1-0.1L65,58.3l0.7-0.4l1,0.1l0.3,0.6L66.3,59.1z M63.3,58.6l-1-0.1L62,57.9
													l0.7-0.4l1,0.1l0.3,0.6L63.3,58.6z M60.2,58.2l-1-0.1l-0.3-0.6l0.7-0.4l1,0.1l0.3,0.6L60.2,58.2z M58.4,56.2l1,0.1
													l0.3,0.6l-0.7,0.4l-1-0.1l-0.3-0.6L58.4,56.2z M61.4,56.7l1,0.1l0.3,0.6L62,57.9l-1-0.1l-0.3-0.6L61.4,56.7z M64.5,57.1
													l1,0.1l0.3,0.6L65,58.3l-1-0.1l-0.3-0.6L64.5,57.1z M66.8,58l-1-0.1l-0.3-0.6l0.7-0.4l1,0.1l0.3,0.6L66.8,58z
													 M63.7,57.6l-1-0.1l-0.3-0.6l0.7-0.4l1,0.1l0.3,0.6L63.7,57.6z M60.7,57.1l-1-0.1l-0.3-0.6l0.7-0.4l1,0.1l0.3,0.6
													L60.7,57.1z M58.8,55.2l1,0.1l0.3,0.6l-0.7,0.4l-1-0.1l-0.3-0.6L58.8,55.2z M61.9,55.7l1,0.1l0.3,0.6l-0.7,0.4l-1-0.1
													l-0.3-0.6L61.9,55.7z M64.9,56.1l1,0.1l0.3,0.6l-0.7,0.4l-1-0.1l-0.3-0.6L64.9,56.1z M67.2,57l-1-0.1l-0.3-0.6l0.7-0.4
													l1,0.1l0.3,0.6L67.2,57z M64.2,56.5l-1-0.1l-0.3-0.6l0.7-0.4l1,0.1l0.3,0.6L64.2,56.5z M61.1,56.1l-1-0.1l-0.3-0.6
													l0.7-0.4l1,0.1l0.3,0.6L61.1,56.1z"/>
												<path class="st46" d="M57,59.3l1,0.1l0.3,0.6l-0.7,0.4l-1-0.1l-0.3-0.6L57,59.3z"/>
												<path class="st46" d="M60,59.8l1,0.1l0.3,0.6L60.6,61l-1-0.1l-0.3-0.6L60,59.8z"/>
												<path class="st46" d="M63.1,60.2l1,0.1l0.3,0.6l-0.7,0.4l-1-0.1l-0.3-0.6L63.1,60.2z"/>
												<path class="st46" d="M65.4,61.1l-1-0.1l-0.3-0.6l0.7-0.4l1,0.1l0.3,0.6L65.4,61.1z"/>
												<path class="st46" d="M62.4,60.7l-1-0.1l-0.3-0.6l0.7-0.4l1,0.1l0.3,0.6L62.4,60.7z"/>
												<path class="st46" d="M59.3,60.2l-1-0.1L58,59.5l0.7-0.4l1,0.1l0.3,0.6L59.3,60.2z"/>
												<path class="st46" d="M57.4,58.3l1,0.1l0.3,0.6L58,59.5l-1-0.1l-0.3-0.6L57.4,58.3z"/>
												<path class="st46" d="M60.5,58.8l1,0.1l0.3,0.6l-0.7,0.4l-1-0.1l-0.3-0.6L60.5,58.8z"/>
												<path class="st46" d="M63.5,59.2l1,0.1l0.3,0.6l-0.7,0.4l-1-0.1l-0.3-0.6L63.5,59.2z"/>
												<path class="st46" d="M65.9,60.1l-1-0.1l-0.3-0.6l0.7-0.4l1,0.1l0.3,0.6L65.9,60.1z"/>
												<path class="st46" d="M62.8,59.6l-1-0.1l-0.3-0.6l0.7-0.4l1,0.1l0.3,0.6L62.8,59.6z"/>
												<path class="st46" d="M59.8,59.2l-1-0.1l-0.3-0.6l0.7-0.4l1,0.1l0.3,0.6L59.8,59.2z"/>
												<path class="st46" d="M57.9,57.3l1,0.1l0.3,0.6l-0.7,0.4l-1-0.1l-0.3-0.6L57.9,57.3z"/>
												<path class="st46" d="M60.9,57.7l1,0.1l0.3,0.6l-0.7,0.4l-1-0.1l-0.3-0.6L60.9,57.7z"/>
												<path class="st46" d="M64,58.2l1,0.1l0.3,0.6l-0.7,0.4l-1-0.1l-0.3-0.6L64,58.2z"/>
												<path class="st46" d="M66.3,59.1l-1-0.1L65,58.3l0.7-0.4l1,0.1l0.3,0.6L66.3,59.1z"/>
												<path class="st46" d="M63.3,58.6l-1-0.1L62,57.9l0.7-0.4l1,0.1l0.3,0.6L63.3,58.6z"/>
												<path class="st46" d="M60.2,58.2l-1-0.1l-0.3-0.6l0.7-0.4l1,0.1l0.3,0.6L60.2,58.2z"/>
												<path class="st46" d="M58.4,56.2l1,0.1l0.3,0.6l-0.7,0.4l-1-0.1l-0.3-0.6L58.4,56.2z"/>
												<path class="st46" d="M61.4,56.7l1,0.1l0.3,0.6L62,57.9l-1-0.1l-0.3-0.6L61.4,56.7z"/>
												<path class="st46" d="M64.5,57.1l1,0.1l0.3,0.6L65,58.3l-1-0.1l-0.3-0.6L64.5,57.1z"/>
												<path class="st46" d="M66.8,58l-1-0.1l-0.3-0.6l0.7-0.4l1,0.1l0.3,0.6L66.8,58z"/>
												<path class="st46" d="M63.7,57.6l-1-0.1l-0.3-0.6l0.7-0.4l1,0.1l0.3,0.6L63.7,57.6z"/>
												<path class="st46" d="M60.7,57.1l-1-0.1l-0.3-0.6l0.7-0.4l1,0.1l0.3,0.6L60.7,57.1z"/>
												<path class="st46" d="M58.8,55.2l1,0.1l0.3,0.6l-0.7,0.4l-1-0.1l-0.3-0.6L58.8,55.2z"/>
												<path class="st46" d="M61.9,55.7l1,0.1l0.3,0.6l-0.7,0.4l-1-0.1l-0.3-0.6L61.9,55.7z"/>
												<path class="st46" d="M64.9,56.1l1,0.1l0.3,0.6l-0.7,0.4l-1-0.1l-0.3-0.6L64.9,56.1z"/>
												<path class="st46" d="M67.2,57l-1-0.1l-0.3-0.6l0.7-0.4l1,0.1l0.3,0.6L67.2,57z"/>
												<path class="st46" d="M64.2,56.5l-1-0.1l-0.3-0.6l0.7-0.4l1,0.1l0.3,0.6L64.2,56.5z"/>
												<path class="st46" d="M61.1,56.1l-1-0.1l-0.3-0.6l0.7-0.4l1,0.1l0.3,0.6L61.1,56.1z"/>
											</g>
										</g>
									</g>
								</g>
							</g>
						</g>
					</g>
					<g class="st45">
						<g>
							<g>
								<g id="id1_1_">
									<g>
										<g>
											<g id="id3_1_">
												<path class="st47" d="M56.2,59.8l1,0.1l0.3,0.6L56.8,61l-1-0.1l-0.3-0.6L56.2,59.8z M59.3,60.2l1,0.1l0.3,0.6l-0.7,0.4
													l-1-0.1l-0.3-0.6L59.3,60.2z M62.3,60.7l1,0.1l0.3,0.6l-0.7,0.4l-1-0.1l-0.3-0.6L62.3,60.7z M64.7,61.6l-1-0.1l-0.3-0.6
													l0.7-0.4l1,0.1l0.3,0.6L64.7,61.6z M61.6,61.1l-1-0.1l-0.3-0.6l0.7-0.4l1,0.1l0.3,0.6L61.6,61.1z M58.6,60.7l-1-0.1
													l-0.3-0.6l0.7-0.4l1,0.1l0.3,0.6L58.6,60.7z M56.7,58.7l1,0.1l0.3,0.6l-0.7,0.4l-1-0.1L56,59.2L56.7,58.7z M59.7,59.2
													l1,0.1l0.3,0.6l-0.7,0.4l-1-0.1L59,59.6L59.7,59.2z M62.8,59.6l1,0.1l0.3,0.6l-0.7,0.4l-1-0.1l-0.3-0.6L62.8,59.6z
													 M65.1,60.5l-1-0.1l-0.3-0.6l0.7-0.4l1,0.1l0.3,0.6L65.1,60.5z M62.1,60.1l-1-0.1l-0.3-0.6l0.7-0.4l1,0.1l0.3,0.6
													L62.1,60.1z M59,59.6l-1-0.1l-0.3-0.6l0.7-0.4l1,0.1l0.3,0.6L59,59.6z M57.1,57.7l1,0.1l0.3,0.6l-0.7,0.4l-1-0.1
													l-0.3-0.6L57.1,57.7z M60.2,58.2l1,0.1l0.3,0.6l-0.7,0.4l-1-0.1l-0.3-0.6L60.2,58.2z M63.3,58.6l1,0.1l0.3,0.6l-0.7,0.4
													l-1-0.1L62.5,59L63.3,58.6z M65.6,59.5l-1-0.1l-0.3-0.6l0.7-0.4l1,0.1l0.3,0.6L65.6,59.5z M62.5,59l-1-0.1l-0.3-0.6
													l0.7-0.4l1,0.1l0.3,0.6L62.5,59z M59.5,58.6l-1-0.1l-0.3-0.6l0.7-0.4l1,0.1l0.3,0.6L59.5,58.6z M57.6,56.7l1,0.1
													l0.3,0.6l-0.7,0.4l-1-0.1l-0.3-0.6L57.6,56.7z M60.7,57.1l1,0.1l0.3,0.6l-0.7,0.4l-1-0.1l-0.3-0.6L60.7,57.1z
													 M63.7,57.6l1,0.1l0.3,0.6l-0.7,0.4l-1-0.1L63,58L63.7,57.6z M66,58.5l-1-0.1l-0.3-0.6l0.7-0.4l1,0.1l0.3,0.6L66,58.5z
													 M63,58l-1-0.1l-0.3-0.6l0.7-0.4l1,0.1l0.3,0.6L63,58z M59.9,57.6l-1-0.1l-0.3-0.6l0.7-0.4l1,0.1l0.3,0.6L59.9,57.6z
													 M58.1,55.6l1,0.1l0.3,0.6l-0.7,0.4l-1-0.1l-0.3-0.6L58.1,55.6z M61.1,56.1l1,0.1l0.3,0.6l-0.7,0.4l-1-0.1l-0.3-0.6
													L61.1,56.1z M64.2,56.5l1,0.1l0.3,0.6l-0.7,0.4l-1-0.1L63.4,57L64.2,56.5z M66.5,57.4l-1-0.1l-0.3-0.6l0.7-0.4l1,0.1
													l0.3,0.6L66.5,57.4z M63.4,57l-1-0.1l-0.3-0.6l0.7-0.4l1,0.1l0.3,0.6L63.4,57z M60.4,56.5l-1-0.1l-0.3-0.6l0.7-0.4
													l1,0.1l0.3,0.6L60.4,56.5z"/>
												<path class="st47" d="M56.2,59.8l1,0.1l0.3,0.6L56.8,61l-1-0.1l-0.3-0.6L56.2,59.8z"/>
												<path class="st47" d="M59.3,60.2l1,0.1l0.3,0.6l-0.7,0.4l-1-0.1l-0.3-0.6L59.3,60.2z"/>
												<path class="st47" d="M62.3,60.7l1,0.1l0.3,0.6l-0.7,0.4l-1-0.1l-0.3-0.6L62.3,60.7z"/>
												<path class="st47" d="M64.7,61.6l-1-0.1l-0.3-0.6l0.7-0.4l1,0.1l0.3,0.6L64.7,61.6z"/>
												<path class="st47" d="M61.6,61.1l-1-0.1l-0.3-0.6l0.7-0.4l1,0.1l0.3,0.6L61.6,61.1z"/>
												<path class="st47" d="M58.6,60.7l-1-0.1l-0.3-0.6l0.7-0.4l1,0.1l0.3,0.6L58.6,60.7z"/>
												<path class="st47" d="M56.7,58.7l1,0.1l0.3,0.6l-0.7,0.4l-1-0.1L56,59.2L56.7,58.7z"/>
												<path class="st47" d="M59.7,59.2l1,0.1l0.3,0.6l-0.7,0.4l-1-0.1L59,59.6L59.7,59.2z"/>
												<path class="st47" d="M62.8,59.6l1,0.1l0.3,0.6l-0.7,0.4l-1-0.1l-0.3-0.6L62.8,59.6z"/>
												<path class="st47" d="M65.1,60.5l-1-0.1l-0.3-0.6l0.7-0.4l1,0.1l0.3,0.6L65.1,60.5z"/>
												<path class="st47" d="M62.1,60.1l-1-0.1l-0.3-0.6l0.7-0.4l1,0.1l0.3,0.6L62.1,60.1z"/>
												<path class="st47" d="M59,59.6l-1-0.1l-0.3-0.6l0.7-0.4l1,0.1l0.3,0.6L59,59.6z"/>
												<path class="st47" d="M57.1,57.7l1,0.1l0.3,0.6l-0.7,0.4l-1-0.1l-0.3-0.6L57.1,57.7z"/>
												<path class="st47" d="M60.2,58.2l1,0.1l0.3,0.6l-0.7,0.4l-1-0.1l-0.3-0.6L60.2,58.2z"/>
												<path class="st47" d="M63.3,58.6l1,0.1l0.3,0.6l-0.7,0.4l-1-0.1L62.5,59L63.3,58.6z"/>
												<path class="st47" d="M65.6,59.5l-1-0.1l-0.3-0.6l0.7-0.4l1,0.1l0.3,0.6L65.6,59.5z"/>
												<path class="st47" d="M62.5,59l-1-0.1l-0.3-0.6l0.7-0.4l1,0.1l0.3,0.6L62.5,59z"/>
												<path class="st47" d="M59.5,58.6l-1-0.1l-0.3-0.6l0.7-0.4l1,0.1l0.3,0.6L59.5,58.6z"/>
												<path class="st47" d="M57.6,56.7l1,0.1l0.3,0.6l-0.7,0.4l-1-0.1l-0.3-0.6L57.6,56.7z"/>
												<path class="st47" d="M60.7,57.1l1,0.1l0.3,0.6l-0.7,0.4l-1-0.1l-0.3-0.6L60.7,57.1z"/>
												<path class="st47" d="M63.7,57.6l1,0.1l0.3,0.6l-0.7,0.4l-1-0.1L63,58L63.7,57.6z"/>
												<path class="st47" d="M66,58.5l-1-0.1l-0.3-0.6l0.7-0.4l1,0.1l0.3,0.6L66,58.5z"/>
												<path class="st47" d="M63,58l-1-0.1l-0.3-0.6l0.7-0.4l1,0.1l0.3,0.6L63,58z"/>
												<path class="st47" d="M59.9,57.6l-1-0.1l-0.3-0.6l0.7-0.4l1,0.1l0.3,0.6L59.9,57.6z"/>
												<path class="st47" d="M58.1,55.6l1,0.1l0.3,0.6l-0.7,0.4l-1-0.1l-0.3-0.6L58.1,55.6z"/>
												<path class="st47" d="M61.1,56.1l1,0.1l0.3,0.6l-0.7,0.4l-1-0.1l-0.3-0.6L61.1,56.1z"/>
												<path class="st47" d="M64.2,56.5l1,0.1l0.3,0.6l-0.7,0.4l-1-0.1L63.4,57L64.2,56.5z"/>
												<path class="st47" d="M66.5,57.4l-1-0.1l-0.3-0.6l0.7-0.4l1,0.1l0.3,0.6L66.5,57.4z"/>
												<path class="st47" d="M63.4,57l-1-0.1l-0.3-0.6l0.7-0.4l1,0.1l0.3,0.6L63.4,57z"/>
												<path class="st47" d="M60.4,56.5l-1-0.1l-0.3-0.6l0.7-0.4l1,0.1l0.3,0.6L60.4,56.5z"/>
											</g>
										</g>
									</g>
								</g>
							</g>
						</g>
					</g>
				</g>
			</g>
		</g>
		<g>
			<path class="st48" d="M79.3,68.3c-2.9,1.8-35.8,20.4-36,20.6c-0.3,0.2-1.4,0.6-2.8,0.6c-0.9,0-1.8-0.4-2.5-0.7
				c-2.4-1.3-15.8-8.8-16.1-9.1c-0.3-0.3-0.7-0.7-0.6-1.3c0-0.6,0.7-1,0.7-1c0,0,37-19.6,37.6-19.9c0.6-0.3,1.3-0.4,2-0.4
				c0.9,0,1.7,0.2,2.3,0.5c0.3,0.2,14.2,8.1,14.9,8.5c0,0,0.9,0.5,0.9,1.2C79.8,67.6,79.8,68,79.3,68.3z"/>
		</g>
	</g>
	
		<ellipse transform="matrix(1.849557e-02 -0.9998 0.9998 1.849557e-02 5.0474 143.9165)" class="st49" cx="75.8" cy="69.4" rx="1.7" ry="3.9"/>
	<rect x="90.9" y="72.6" class="st35" width="36.1" height="15.9"/>
	<text transform="matrix(1 0 0 1 90.8686 75.4264)"><tspan x="0" y="0" class="st9 st36 st37">Connect </tspan><tspan x="15.2" y="0" class="st9 st38 st37">with your </tspan><tspan x="0" y="4.8" class="st9 st38 st37">friends to </tspan><tspan x="15.2" y="4.8" class="st9 st36 st37">share </tspan><tspan x="25.3" y="4.8" class="st9 st38 st37">and </tspan><tspan x="0" y="9.6" class="st9 st36 st37">send messages</tspan></text>
	<line class="st34" x1="79.5" y1="68.8" x2="89.9" y2="68.8"/>
	<polygon class="st39" points="89.9,68.8 91.2,70.1 102.2,70.1 102.2,68.8 	"/>
</g>
<g id="Footer">
	<g>
		<g>
			<defs>
				<path id="SVGID_30_" d="M81.2,15.2c-3.1,1.6-38,17.6-38.3,17.7c-0.3,0.1-1.5,0.5-3,0.4c-0.9-0.1-1.9-0.5-2.6-0.9
					c-2.6-1.5-16.7-9.8-17.1-10.1c-0.4-0.3-0.7-0.7-0.6-1.3c0.1-0.6,0.8-0.9,0.8-0.9c0,0,39.3-16.7,39.9-16.9"/>
			</defs>
			<clipPath id="SVGID_31_">
				<use xlink:href="#SVGID_30_"  style="overflow:visible;"/>
			</clipPath>
			<g class="st50">
				
					<linearGradient id="SVGID_32_" gradientUnits="userSpaceOnUse" x1="-28.7397" y1="54.8639" x2="-30.7588" y2="62.6145" gradientTransform="matrix(1.0323 0.6103 -1.4252 0.7152 149.5847 1.5422)">
					<stop  offset="0" style="stop-color:#2A3693"/>
					<stop  offset="1" style="stop-color:#209285"/>
				</linearGradient>
				<polygon class="st51" points="21.6,19.1 44.2,32.5 40.1,34.5 17.5,21.2 				"/>
				<g>
					<path class="st9" d="M25,22.2l-1.2-0.7c-0.1,0-0.2,0-0.3,0l-1.5,0.8c-0.1,0.1-0.1,0.1-0.1,0.2l1.2,0.7c0.1,0,0.2,0,0.3,0
						l1.5-0.8C25,22.3,25.1,22.2,25,22.2z M24.1,22.7c0,0-0.1,0-0.1,0l-0.3-0.2c0,0-0.1,0-0.1,0c-0.1,0-0.2,0-0.2,0l-0.3-0.2
						c0,0,0-0.1,0-0.1c0,0,0,0,0-0.1L22.8,22c0,0,0-0.1,0-0.1l0.7-0.3c0,0,0.1,0,0.1,0l1.2,0.7c0,0,0,0.1,0,0.1L24.1,22.7z"/>
					<path class="st9" d="M24.4,22.3l-0.9-0.6c0,0,0,0,0-0.1c0,0,0.1,0,0.1,0l0.9,0.6c0,0,0,0,0,0.1C24.5,22.4,24.4,22.4,24.4,22.3z
						 M24.1,22.5L23.1,22c0,0,0,0,0-0.1c0,0,0.1,0,0.1,0l0.9,0.6c0,0,0,0,0,0.1C24.2,22.5,24.1,22.5,24.1,22.5z"/>
				</g>
				<g>
					<path class="st9" d="M40,31.3l0.1-0.2c0,0,0-0.1,0-0.1l-1-0.6c0,0-0.1,0-0.2,0l-0.3,0c-0.1,0-0.1,0-0.2,0l-1.4,0.7
						c-0.1,0.1-0.2,0.2-0.1,0.2l1.2,0.7c0.1,0.1,0.3,0,0.4,0l1.4-0.7C39.9,31.3,40,31.3,40,31.3L40,31.3z M37.9,31.5L38,31l0.3,0.2
						l0.2-0.1l0.3,0.2l-0.2,0.1l0.3,0.2L37.9,31.5z M38.7,30.5l0.2,0l1,0.6l0,0.1L38.7,30.5z"/>
				</g>
			</g>
		</g>
		<g>
			<path class="st52" d="M81.1,15.2c-3.1,1.6-38,17.6-38.3,17.7c-0.3,0.1-1.5,0.5-3,0.4c-0.9-0.1-1.9-0.5-2.6-0.9
				c-2.6-1.5-16.7-9.8-17.1-10.1s-0.7-0.7-0.6-1.3c0.1-0.6,0.8-0.9,0.8-0.9c0,0,39.3-16.7,39.9-16.9c0.7-0.2,1.4-0.3,2.1-0.3
				c0.9,0.1,1.8,0.3,2.5,0.7c0.3,0.2,15.1,9,15.8,9.4c0,0,0.9,0.5,1,1.3C81.6,14.5,81.6,14.9,81.1,15.2z"/>
		</g>
	</g>
	
		<ellipse transform="matrix(1.849557e-02 -0.9998 0.9998 1.849557e-02 6.6572 69.4049)" class="st53" cx="38.7" cy="31.3" rx="1.4" ry="3.3"/>
	<polyline class="st34" points="41.6,30.7 73,11.6 89.9,11.6 	"/>
	<rect x="90.9" y="15.4" class="st35" width="27.8" height="9.7"/>
	<text transform="matrix(1 0 0 1 90.8686 18.2172)"><tspan x="0" y="0" class="st9 st36 st37">Upload </tspan><tspan x="13" y="0" class="st9 st38 st37">your </tspan><tspan x="0" y="4.8" class="st9 st38 st37">screenshots</tspan></text>
	<polygon class="st39" points="89.9,11.6 91.2,12.9 102.2,12.9 102.2,11.6 	"/>
	<g>
		<g>
			<line class="st52" x1="22.6" y1="25.3" x2="22.6" y2="25.8"/>
			<line class="st54" x1="22.6" y1="26.2" x2="22.6" y2="46.5"/>
			<line class="st52" x1="22.6" y1="46.7" x2="22.6" y2="47.2"/>
		</g>
	</g>
</g>
<g id="Error" class="st0">
</g>
<g id="Callouts">
</g>
<g id="Layer_10">
	<rect x="3.7" y="19.4" class="st35" width="15.4" height="5.4"/>
	<text transform="matrix(1 0 0 1 3.6885 22.2335)" class="st9 st36 st37">Footer</text>
	<rect x="3.7" y="49" class="st35" width="15.4" height="5.4"/>
	<text transform="matrix(1 0 0 1 3.6885 51.8386)" class="st9 st36 st37">Content</text>
	<rect x="3.7" y="75.1" class="st35" width="15.4" height="5.4"/>
	<text transform="matrix(1 0 0 1 3.6885 77.9642)" class="st9 st36 st37">Header</text>
</g>
</svg>
